<?xml version="1.0" encoding="UTF-8"?>
<svg xmlns="http://www.w3.org/2000/svg" xmlns:xlink="http://www.w3.org/1999/xlink" width="16px" height="16px" viewBox="0 0 16 18" version="1.1">
<g id="surface1">
<path style=" stroke:none;fill-rule:nonzero;fill:rgb(10.588235%,45.098039%,72.941176%);fill-opacity:1;" d="M 1.339844 16.113281 L 0 0.03125 L 16 0.0625 L 14.582031 16.113281 L 8.058594 17.96875 Z M 1.339844 16.113281 "/>
<path style=" stroke:none;fill-rule:nonzero;fill:rgb(10.980392%,53.333333%,78.039216%);fill-opacity:1;" d="M 8.058594 16.417969 L 8.058594 1.5625 L 14.648438 1.582031 L 13.472656 14.875 Z M 8.058594 16.417969 "/>
<path style=" stroke:none;fill-rule:nonzero;fill:rgb(100%,100%,100%);fill-opacity:1;" d="M 13.011719 3.460938 L 2.878906 3.460938 L 3.152344 5.402344 L 7.960938 5.402344 L 3.230469 7.398438 L 3.503906 9.273438 L 10.476562 9.273438 L 10.222656 11.894531 L 7.863281 12.347656 L 5.722656 11.808594 L 5.558594 10.320312 L 3.589844 10.320312 L 3.855469 13.417969 L 8.070312 14.570312 L 12.113281 13.308594 L 12.628906 7.257812 L 8.355469 7.257812 L 13.011719 5.359375 Z M 13.011719 3.460938 "/>
</g>
</svg>
