<?xml version="1.0" encoding="UTF-8"?>
<svg xmlns="http://www.w3.org/2000/svg" xmlns:xlink="http://www.w3.org/1999/xlink" width="16px" height="16px" viewBox="0 0 16 14" version="1.1">
<g id="surface1">
<path style=" stroke:none;fill-rule:nonzero;fill:rgb(50.196078%,50.196078%,94.901961%);fill-opacity:1;" d="M 4.875 5.011719 L 7.910156 3.269531 C 7.984375 3.222656 8.078125 3.222656 8.152344 3.269531 L 11.1875 5.011719 C 11.265625 5.058594 11.3125 5.136719 11.3125 5.226562 L 11.3125 8.714844 C 11.3125 8.800781 11.265625 8.882812 11.1875 8.925781 L 8.152344 10.671875 C 8.078125 10.714844 7.984375 10.714844 7.910156 10.671875 L 4.875 8.925781 C 4.796875 8.882812 4.75 8.800781 4.75 8.714844 L 4.75 5.226562 C 4.75 5.136719 4.796875 5.058594 4.875 5.011719 "/>
<path style=" stroke:none;fill-rule:nonzero;fill:rgb(29.411765%,19.607843%,76.470588%);fill-opacity:1;" d="M 15.898438 6.683594 L 12.269531 0.394531 C 12.136719 0.167969 11.894531 0 11.628906 0 L 4.371094 0 C 4.105469 0 3.863281 0.167969 3.730469 0.394531 L 0.101562 6.667969 C -0.03125 6.898438 -0.03125 7.183594 0.101562 7.410156 L 3.730469 13.648438 C 3.863281 13.875 4.105469 13.992188 4.371094 13.992188 L 11.628906 13.992188 C 11.894531 13.992188 12.136719 13.878906 12.269531 13.652344 L 15.898438 7.40625 C 16.03125 7.175781 16.03125 6.910156 15.898438 6.683594 Z M 12.894531 9.707031 C 12.894531 9.800781 12.839844 9.886719 12.757812 9.933594 L 8.132812 12.589844 C 8.050781 12.632812 7.953125 12.632812 7.871094 12.589844 L 3.242188 9.933594 C 3.164062 9.886719 3.105469 9.800781 3.105469 9.707031 L 3.105469 4.394531 C 3.105469 4.300781 3.164062 4.214844 3.242188 4.171875 L 7.867188 1.515625 C 7.949219 1.46875 8.046875 1.46875 8.128906 1.515625 L 12.757812 4.171875 C 12.835938 4.214844 12.894531 4.300781 12.894531 4.394531 Z M 12.894531 9.707031 "/>
</g>
</svg>
