<?xml version="1.0" encoding="UTF-8"?>
<svg xmlns="http://www.w3.org/2000/svg" xmlns:xlink="http://www.w3.org/1999/xlink" width="16px" height="16px" viewBox="0 0 16 15" version="1.1">
<g id="surface1">
<path style=" stroke:none;fill-rule:nonzero;fill:rgb(8.627451%,8.627451%,7.843137%);fill-opacity:1;" d="M 7.96875 0 C 3.570312 0 0 3.4375 0 7.679688 C 0 11.074219 2.285156 13.953125 5.449219 14.96875 C 5.847656 15.039062 5.996094 14.800781 5.996094 14.597656 C 5.996094 14.414062 5.988281 13.808594 5.984375 13.167969 C 3.765625 13.632812 3.296875 12.261719 3.296875 12.261719 C 2.9375 11.375 2.414062 11.136719 2.414062 11.136719 C 1.691406 10.660156 2.46875 10.671875 2.46875 10.671875 C 3.269531 10.726562 3.691406 11.460938 3.691406 11.460938 C 4.402344 12.636719 5.554688 12.296875 6.007812 12.101562 C 6.082031 11.605469 6.285156 11.265625 6.515625 11.074219 C 4.746094 10.878906 2.882812 10.222656 2.882812 7.277344 C 2.882812 6.441406 3.195312 5.753906 3.707031 5.21875 C 3.621094 5.023438 3.351562 4.242188 3.78125 3.183594 C 3.78125 3.183594 4.453125 2.980469 5.972656 3.972656 C 6.609375 3.800781 7.292969 3.714844 7.96875 3.714844 C 8.644531 3.714844 9.328125 3.800781 9.964844 3.972656 C 11.488281 2.980469 12.15625 3.183594 12.15625 3.183594 C 12.589844 4.242188 12.316406 5.023438 12.234375 5.21875 C 12.742188 5.753906 13.054688 6.441406 13.054688 7.277344 C 13.054688 10.226562 11.1875 10.878906 9.414062 11.066406 C 9.699219 11.304688 9.953125 11.773438 9.953125 12.492188 C 9.953125 13.519531 9.945312 14.34375 9.945312 14.597656 C 9.945312 14.800781 10.089844 15.042969 10.492188 14.964844 C 13.65625 13.949219 15.9375 11.070312 15.9375 7.679688 C 15.9375 3.4375 12.371094 0 7.96875 0 "/>
<path style=" stroke:none;fill-rule:nonzero;fill:rgb(8.627451%,8.627451%,7.843137%);fill-opacity:1;" d="M 2.984375 10.941406 C 2.96875 10.976562 2.90625 10.988281 2.847656 10.964844 C 2.789062 10.9375 2.757812 10.886719 2.777344 10.847656 C 2.792969 10.808594 2.855469 10.796875 2.914062 10.824219 C 2.972656 10.847656 3.003906 10.902344 2.984375 10.941406 M 3.375 11.277344 C 3.339844 11.3125 3.265625 11.296875 3.214844 11.242188 C 3.160156 11.1875 3.152344 11.117188 3.191406 11.082031 C 3.230469 11.046875 3.300781 11.0625 3.355469 11.117188 C 3.40625 11.171875 3.417969 11.242188 3.375 11.277344 M 3.644531 11.707031 C 3.597656 11.742188 3.515625 11.710938 3.46875 11.640625 C 3.417969 11.574219 3.417969 11.492188 3.46875 11.460938 C 3.519531 11.425781 3.597656 11.457031 3.648438 11.523438 C 3.695312 11.59375 3.695312 11.675781 3.644531 11.707031 M 4.101562 12.207031 C 4.058594 12.253906 3.964844 12.242188 3.894531 12.179688 C 3.824219 12.117188 3.804688 12.027344 3.851562 11.980469 C 3.894531 11.9375 3.988281 11.949219 4.058594 12.011719 C 4.125 12.074219 4.148438 12.164062 4.101562 12.207031 M 4.6875 12.375 C 4.667969 12.4375 4.578125 12.464844 4.488281 12.4375 C 4.398438 12.414062 4.339844 12.339844 4.359375 12.28125 C 4.375 12.21875 4.46875 12.191406 4.558594 12.21875 C 4.648438 12.246094 4.707031 12.316406 4.6875 12.375 M 5.355469 12.449219 C 5.359375 12.511719 5.28125 12.5625 5.1875 12.566406 C 5.09375 12.566406 5.015625 12.515625 5.015625 12.453125 C 5.015625 12.390625 5.089844 12.335938 5.183594 12.335938 C 5.28125 12.335938 5.355469 12.386719 5.355469 12.449219 M 6.015625 12.425781 C 6.027344 12.484375 5.960938 12.550781 5.867188 12.566406 C 5.773438 12.582031 5.6875 12.542969 5.675781 12.484375 C 5.664062 12.417969 5.730469 12.355469 5.824219 12.339844 C 5.917969 12.324219 6.003906 12.359375 6.015625 12.425781 "/>
</g>
</svg>
