<?xml version="1.0" encoding="UTF-8"?>
<svg xmlns="http://www.w3.org/2000/svg" xmlns:xlink="http://www.w3.org/1999/xlink" width="16px" height="16px" viewBox="0 0 16 16" version="1.1">
<g id="surface1">
<rect x="0" y="0" width="16" height="16" style="fill:rgb(100%,100%,100%);fill-opacity:1;stroke:none;"/>
<path style=" stroke:none;fill-rule:evenodd;fill:rgb(83.137255%,42.745098%,25.490196%);fill-opacity:1;" d="M 8.625 7.40625 L 9.5625 7.40625 C 9.5 6.617188 8.660156 6.484375 8.246094 6.503906 C 7.835938 6.519531 7.09375 6.585938 7.046875 7.359375 C 7.011719 7.867188 7.40625 8.035156 7.753906 8.199219 C 7.917969 8.28125 8.179688 8.394531 8.296875 8.429688 C 8.675781 8.59375 8.492188 8.839844 8.199219 8.839844 C 7.886719 8.855469 7.703125 8.675781 7.703125 8.542969 L 6.78125 8.542969 C 6.796875 9.367188 7.652344 9.5 8.179688 9.5 C 8.722656 9.5 9.480469 9.269531 9.449219 8.542969 C 9.433594 8.015625 8.953125 7.851562 8.640625 7.703125 C 8.3125 7.554688 7.949219 7.523438 7.96875 7.308594 C 7.984375 7.078125 8.609375 7.078125 8.625 7.40625 Z M 2.945312 6.585938 L 2.8125 7.554688 L 1.90625 7.554688 L 2.054688 6.585938 L 1.101562 6.585938 L 0.707031 9.398438 L 1.644531 9.398438 L 1.792969 8.347656 L 2.699219 8.347656 L 2.535156 9.398438 L 3.503906 9.398438 L 3.917969 6.585938 Z M 4.113281 6.585938 L 5.085938 6.585938 C 5.085938 6.585938 4.871094 8.050781 4.839844 8.347656 C 4.789062 8.644531 4.953125 8.824219 5.234375 8.824219 C 5.515625 8.839844 5.710938 8.625 5.746094 8.347656 C 5.808594 7.933594 6.007812 6.585938 6.007812 6.585938 L 6.980469 6.585938 C 6.980469 6.585938 6.816406 7.703125 6.730469 8.347656 C 6.648438 8.90625 6.46875 9.484375 5.25 9.5 C 3.898438 9.5 3.835938 8.578125 3.867188 8.328125 C 3.898438 8.148438 4.113281 6.585938 4.113281 6.585938 Z M 15.292969 6.585938 L 14.207031 6.585938 L 13.613281 7.554688 L 13.234375 6.585938 L 11.671875 6.585938 L 10.699219 7.507812 L 10.832031 6.585938 L 9.894531 6.585938 L 9.5 9.398438 L 10.421875 9.398438 L 10.519531 8.660156 L 10.863281 8.378906 L 11.359375 9.398438 L 12.460938 9.398438 L 11.539062 7.753906 L 12.378906 6.964844 L 13.070312 8.347656 L 12.90625 9.398438 L 13.878906 9.398438 L 14.007812 8.414062 Z M 15.292969 6.585938 "/>
</g>
</svg>
