<?xml version="1.0" encoding="UTF-8"?>
<svg xmlns="http://www.w3.org/2000/svg" xmlns:xlink="http://www.w3.org/1999/xlink" width="16px" height="16px" viewBox="0 0 16 17" version="1.1">
<g id="surface1">
<path style=" stroke:none;fill-rule:nonzero;fill:rgb(60%,25.882353%,35.686275%);fill-opacity:1;" d="M 11.273438 7.804688 C 11.273438 7.496094 11.011719 7.246094 10.691406 7.246094 C 10.671875 7.246094 10.648438 7.246094 10.628906 7.246094 L 11.429688 4.980469 L 8.027344 4.980469 L 8.828125 7.246094 C 8.816406 7.246094 8.804688 7.246094 8.792969 7.246094 C 8.46875 7.246094 8.210938 7.496094 8.210938 7.804688 C 8.210938 8.054688 8.378906 8.265625 8.613281 8.339844 C 8.492188 8.546875 8.335938 8.730469 8.15625 8.894531 C 7.914062 9.113281 7.640625 9.277344 7.339844 9.378906 C 6.984375 9.203125 6.816406 8.8125 6.96875 8.472656 C 6.984375 8.433594 7.003906 8.394531 7.019531 8.355469 C 7.277344 8.296875 7.46875 8.074219 7.46875 7.808594 C 7.46875 7.5 7.207031 7.25 6.886719 7.25 C 6.5625 7.25 6.304688 7.5 6.304688 7.808594 C 6.304688 8 6.402344 8.164062 6.550781 8.265625 C 6.40625 8.582031 6.195312 8.914062 6.128906 9.296875 C 6.050781 9.753906 6.128906 10.242188 6.542969 10.515625 C 7.503906 11.15625 8.546875 10.121094 9.648438 9.859375 C 10.046875 9.765625 10.484375 9.78125 10.835938 9.585938 C 11.101562 9.4375 11.273438 9.195312 11.324219 8.921875 C 11.371094 8.652344 11.300781 8.382812 11.136719 8.164062 C 11.226562 8.0625 11.273438 7.9375 11.273438 7.804688 "/>
<path style=" stroke:none;fill-rule:nonzero;fill:rgb(100%,100%,100%);fill-opacity:1;" d="M 11.183594 8.898438 C 11.140625 9.132812 10.988281 9.339844 10.765625 9.464844 C 10.558594 9.582031 10.308594 9.617188 10.042969 9.652344 C 9.902344 9.671875 9.757812 9.691406 9.613281 9.726562 C 9.238281 9.816406 8.871094 9.988281 8.519531 10.160156 C 7.808594 10.496094 7.199219 10.789062 6.625 10.40625 C 6.199219 10.125 6.21875 9.601562 6.269531 9.320312 C 6.316406 9.054688 6.4375 8.8125 6.558594 8.574219 C 6.578125 8.535156 6.597656 8.496094 6.617188 8.457031 C 6.679688 8.480469 6.742188 8.496094 6.804688 8.5 C 6.683594 8.886719 6.875 9.304688 7.273438 9.5 L 7.328125 9.527344 L 7.386719 9.507812 C 7.703125 9.398438 7.996094 9.226562 8.253906 8.992188 C 8.421875 8.839844 8.566406 8.671875 8.683594 8.492188 C 8.71875 8.5 8.753906 8.5 8.792969 8.5 C 9.160156 8.5 9.464844 8.238281 9.511719 7.898438 C 9.660156 7.890625 9.820312 7.890625 9.972656 7.898438 C 10.019531 8.238281 10.324219 8.5 10.691406 8.5 C 10.84375 8.5 10.988281 8.457031 11.105469 8.375 C 11.1875 8.535156 11.214844 8.71875 11.183594 8.898438 Z M 6.886719 7.386719 C 7.128906 7.386719 7.328125 7.574219 7.328125 7.808594 C 7.328125 7.890625 7.300781 7.972656 7.257812 8.035156 C 7.183594 8.144531 7.058594 8.222656 6.917969 8.230469 C 6.90625 8.230469 6.894531 8.230469 6.886719 8.230469 C 6.832031 8.230469 6.78125 8.222656 6.730469 8.207031 C 6.636719 8.171875 6.554688 8.105469 6.503906 8.019531 C 6.464844 7.953125 6.445312 7.882812 6.445312 7.808594 C 6.445312 7.574219 6.644531 7.386719 6.886719 7.386719 Z M 8.351562 7.804688 C 8.351562 7.59375 8.515625 7.417969 8.726562 7.386719 C 8.75 7.382812 8.769531 7.382812 8.792969 7.382812 C 8.933594 7.382812 9.058594 7.445312 9.140625 7.546875 C 9.160156 7.570312 9.175781 7.597656 9.191406 7.625 C 9.21875 7.679688 9.234375 7.742188 9.234375 7.804688 C 9.234375 7.839844 9.226562 7.871094 9.21875 7.902344 C 9.175781 8.074219 9.023438 8.207031 8.835938 8.226562 C 8.820312 8.226562 8.808594 8.226562 8.792969 8.226562 C 8.707031 8.226562 8.625 8.203125 8.554688 8.160156 C 8.433594 8.085938 8.351562 7.953125 8.351562 7.804688 Z M 10.191406 7.300781 C 10.09375 7.390625 10.023438 7.5 9.992188 7.625 C 9.824219 7.617188 9.660156 7.617188 9.492188 7.625 C 9.457031 7.492188 9.378906 7.375 9.273438 7.285156 L 9.730469 6.398438 Z M 8.226562 5.117188 L 11.230469 5.117188 L 10.523438 7.128906 C 10.492188 7.132812 10.460938 7.144531 10.433594 7.152344 L 9.730469 5.78125 L 9.027344 7.144531 C 8.996094 7.136719 8.964844 7.128906 8.933594 7.121094 Z M 11.132812 7.804688 C 11.132812 7.847656 11.125 7.886719 11.113281 7.925781 C 11.082031 8.019531 11.023438 8.097656 10.941406 8.152344 C 10.867188 8.203125 10.78125 8.226562 10.691406 8.226562 C 10.488281 8.226562 10.316406 8.09375 10.265625 7.914062 C 10.253906 7.878906 10.25 7.839844 10.25 7.804688 C 10.25 7.746094 10.261719 7.691406 10.285156 7.640625 C 10.296875 7.617188 10.308594 7.589844 10.324219 7.566406 C 10.40625 7.457031 10.539062 7.382812 10.691406 7.382812 C 10.703125 7.382812 10.71875 7.382812 10.730469 7.382812 C 10.957031 7.402344 11.132812 7.585938 11.132812 7.804688 Z M 11.417969 7.804688 C 11.417969 7.464844 11.160156 7.179688 10.824219 7.121094 L 11.628906 4.84375 L 7.828125 4.84375 L 8.632812 7.125 C 8.308594 7.195312 8.066406 7.472656 8.066406 7.804688 C 8.066406 8.054688 8.203125 8.273438 8.410156 8.394531 C 8.3125 8.539062 8.195312 8.671875 8.058594 8.792969 C 7.847656 8.988281 7.609375 9.132812 7.351562 9.230469 C 7.09375 9.074219 6.984375 8.78125 7.097656 8.523438 L 7.109375 8.503906 L 7.125 8.464844 C 7.40625 8.371094 7.613281 8.113281 7.613281 7.808594 C 7.613281 7.425781 7.285156 7.113281 6.886719 7.113281 C 6.488281 7.113281 6.160156 7.425781 6.160156 7.808594 C 6.160156 8.003906 6.242188 8.179688 6.378906 8.304688 C 6.351562 8.355469 6.328125 8.40625 6.300781 8.457031 C 6.179688 8.695312 6.042969 8.96875 5.988281 9.273438 C 5.886719 9.875 6.050781 10.355469 6.460938 10.628906 C 6.707031 10.792969 6.960938 10.859375 7.214844 10.859375 C 7.691406 10.859375 8.171875 10.628906 8.644531 10.402344 C 8.984375 10.242188 9.335938 10.074219 9.683594 9.992188 C 9.8125 9.960938 9.945312 9.941406 10.085938 9.921875 C 10.363281 9.882812 10.652344 9.84375 10.90625 9.703125 C 11.203125 9.539062 11.40625 9.261719 11.464844 8.945312 C 11.511719 8.671875 11.453125 8.398438 11.308594 8.167969 C 11.378906 8.058594 11.417969 7.933594 11.417969 7.804688 Z M 11.417969 7.804688 "/>
</g>
</svg>
