<?xml version="1.0" encoding="UTF-8"?>
<svg xmlns="http://www.w3.org/2000/svg" xmlns:xlink="http://www.w3.org/1999/xlink" width="15px" height="16px" viewBox="0 0 15 16" version="1.1">
<g id="surface1">
<path style=" stroke:none;fill-rule:nonzero;fill:rgb(54.901961%,78.431373%,29.411765%);fill-opacity:1;" d="M 6.824219 0.203125 C 7.234375 -0.0234375 7.765625 -0.0234375 8.171875 0.203125 C 10.222656 1.324219 12.273438 2.445312 14.320312 3.566406 C 14.707031 3.777344 14.964844 4.195312 14.960938 4.625 L 14.960938 11.375 C 14.964844 11.820312 14.679688 12.246094 14.273438 12.453125 C 12.230469 13.570312 10.1875 14.6875 8.144531 15.800781 C 7.730469 16.03125 7.1875 16.015625 6.785156 15.765625 C 6.171875 15.421875 5.558594 15.078125 4.945312 14.734375 C 4.820312 14.664062 4.679688 14.605469 4.589844 14.488281 C 4.667969 14.386719 4.808594 14.375 4.921875 14.328125 C 5.179688 14.25 5.414062 14.125 5.648438 14 C 5.707031 13.960938 5.78125 13.976562 5.835938 14.011719 C 6.359375 14.300781 6.878906 14.601562 7.40625 14.890625 C 7.515625 14.953125 7.628906 14.871094 7.726562 14.816406 C 9.730469 13.71875 11.738281 12.625 13.742188 11.527344 C 13.816406 11.492188 13.859375 11.417969 13.851562 11.339844 C 13.855469 9.113281 13.855469 6.886719 13.855469 4.660156 C 13.863281 4.570312 13.808594 4.488281 13.726562 4.449219 C 11.6875 3.339844 9.652344 2.226562 7.617188 1.117188 C 7.546875 1.066406 7.449219 1.066406 7.378906 1.117188 C 5.34375 2.226562 3.308594 3.339844 1.273438 4.453125 C 1.1875 4.488281 1.132812 4.570312 1.144531 4.660156 C 1.144531 6.886719 1.144531 9.113281 1.144531 11.339844 C 1.136719 11.417969 1.179688 11.492188 1.253906 11.527344 C 1.796875 11.824219 2.339844 12.121094 2.882812 12.417969 C 3.191406 12.578125 3.566406 12.671875 3.902344 12.550781 C 4.203125 12.449219 4.410156 12.152344 4.40625 11.847656 C 4.40625 9.632812 4.402344 7.417969 4.40625 5.207031 C 4.398438 5.109375 4.496094 5.027344 4.59375 5.035156 C 4.855469 5.035156 5.117188 5.03125 5.378906 5.035156 C 5.488281 5.035156 5.5625 5.140625 5.546875 5.238281 C 5.546875 7.464844 5.550781 9.695312 5.546875 11.921875 C 5.546875 12.515625 5.296875 13.160156 4.730469 13.453125 C 4.03125 13.800781 3.167969 13.726562 2.476562 13.390625 C 1.878906 13.101562 1.308594 12.761719 0.722656 12.453125 C 0.316406 12.25 0.03125 11.820312 0.0351562 11.375 L 0.0351562 4.625 C 0.03125 4.183594 0.300781 3.761719 0.695312 3.554688 C 2.738281 2.4375 4.78125 1.320312 6.824219 0.203125 Z M 6.824219 0.203125 "/>
<path style=" stroke:none;fill-rule:nonzero;fill:rgb(54.901961%,78.431373%,29.411765%);fill-opacity:1;" d="M 8.605469 4.878906 C 9.5 4.824219 10.453125 4.847656 11.253906 5.269531 C 11.875 5.597656 12.21875 6.28125 12.230469 6.949219 C 12.210938 7.039062 12.113281 7.089844 12.027344 7.082031 C 11.769531 7.082031 11.507812 7.085938 11.25 7.082031 C 11.140625 7.085938 11.078125 6.988281 11.0625 6.894531 C 10.988281 6.574219 10.808594 6.257812 10.5 6.101562 C 10.023438 5.871094 9.46875 5.882812 8.949219 5.886719 C 8.570312 5.90625 8.160156 5.9375 7.839844 6.15625 C 7.59375 6.320312 7.519531 6.648438 7.605469 6.914062 C 7.6875 7.105469 7.917969 7.167969 8.105469 7.226562 C 9.175781 7.496094 10.316406 7.46875 11.367188 7.828125 C 11.804688 7.972656 12.230469 8.257812 12.378906 8.699219 C 12.574219 9.292969 12.488281 10 12.054688 10.476562 C 11.703125 10.867188 11.1875 11.082031 10.675781 11.199219 C 9.992188 11.34375 9.285156 11.347656 8.589844 11.28125 C 7.941406 11.210938 7.261719 11.046875 6.757812 10.617188 C 6.328125 10.253906 6.117188 9.691406 6.140625 9.144531 C 6.144531 9.054688 6.238281 8.992188 6.328125 8.996094 C 6.589844 8.996094 6.851562 8.996094 7.109375 9 C 7.214844 8.992188 7.292969 9.078125 7.296875 9.171875 C 7.34375 9.476562 7.464844 9.796875 7.738281 9.976562 C 8.265625 10.308594 8.929688 10.285156 9.535156 10.292969 C 10.039062 10.273438 10.601562 10.265625 11.011719 9.945312 C 11.226562 9.761719 11.292969 9.457031 11.234375 9.191406 C 11.167969 8.96875 10.929688 8.867188 10.722656 8.796875 C 9.664062 8.472656 8.511719 8.589844 7.460938 8.222656 C 7.035156 8.078125 6.625 7.800781 6.460938 7.378906 C 6.230469 6.777344 6.335938 6.035156 6.816406 5.574219 C 7.285156 5.117188 7.964844 4.941406 8.605469 4.878906 Z M 8.605469 4.878906 "/>
</g>
</svg>
