<?xml version="1.0" encoding="UTF-8"?>
<svg xmlns="http://www.w3.org/2000/svg" xmlns:xlink="http://www.w3.org/1999/xlink" width="16px" height="16px" viewBox="0 0 16 18" version="1.1">
<g id="surface1">
<path style=" stroke:none;fill-rule:nonzero;fill:rgb(54.901961%,78.431373%,29.411765%);fill-opacity:1;" d="M 4.917969 11 C 4.625 11.175781 4.1875 11.464844 3.851562 11.78125 C 3.292969 12.296875 3.175781 13.011719 3.46875 13.179688 C 3.742188 13.335938 4.375 13.152344 4.828125 12.664062 C 5.304688 12.15625 5.5 11.507812 5.296875 10.773438 C 5.273438 10.785156 5.25 10.800781 5.226562 10.8125 L 5.230469 10.816406 L 5.199219 10.832031 C 5.078125 10.902344 4.984375 10.957031 4.917969 10.996094 Z M 13.082031 10.765625 C 12.917969 11.117188 12.910156 11.230469 12.960938 11.265625 C 13.199219 11.183594 13.59375 10.980469 13.597656 10.433594 C 13.597656 10.351562 13.582031 10.265625 13.550781 10.171875 C 13.296875 10.394531 13.148438 10.628906 13.082031 10.765625 Z M 15.648438 9.703125 C 15.007812 9.628906 14.511719 9.71875 14.125 9.875 C 14.195312 10.058594 14.25 10.25 14.257812 10.441406 C 14.277344 10.863281 13.980469 11.175781 13.671875 11.398438 C 13.492188 11.527344 13.304688 11.613281 13.140625 11.667969 C 13.015625 11.71875 12.84375 11.773438 12.722656 11.75 C 12.457031 11.699219 12.3125 11.464844 12.496094 10.949219 C 12.59375 10.671875 12.875 10.25 13.332031 9.882812 C 13.230469 9.675781 13.113281 9.460938 13.054688 9.261719 C 12.9375 8.875 12.902344 8.640625 12.902344 8.640625 C 12.902344 8.640625 12.523438 9.40625 12.039062 10.101562 C 12.011719 10.144531 11.984375 10.183594 11.957031 10.222656 C 12.050781 10.441406 12.125 10.671875 12.136719 10.902344 C 12.15625 11.324219 11.96875 11.644531 11.660156 11.867188 C 11.492188 11.988281 11.316406 12.070312 11.164062 12.125 C 11.066406 12.164062 10.867188 12.234375 10.585938 12.253906 C 10.429688 12.261719 10.28125 12.253906 10.199219 12.191406 C 10.085938 12.105469 10.070312 12.003906 10.128906 11.859375 C 10.179688 11.738281 10.554688 11.320312 10.867188 10.953125 C 10.949219 10.851562 11.03125 10.753906 11.109375 10.648438 L 11.109375 10.644531 C 11.109375 10.644531 11.164062 10.574219 11.257812 10.449219 C 11.144531 10.207031 10.996094 9.953125 10.929688 9.722656 C 10.8125 9.335938 10.777344 9.101562 10.777344 9.101562 C 10.777344 9.101562 10.394531 10.0625 10 10.828125 C 9.691406 11.421875 9.484375 11.785156 9.394531 11.941406 L 9.390625 11.949219 C 9.390625 11.949219 9.378906 11.96875 9.355469 12.007812 L 9.335938 12.035156 C 9.234375 12.183594 9 12.476562 8.773438 12.476562 C 8.140625 12.476562 8.371094 11.214844 8.371094 11.214844 C 8.371094 11.214844 8.1875 11.683594 7.980469 12.082031 C 7.808594 12.410156 7.65625 12.6875 7.316406 12.6875 C 7.21875 12.6875 7.066406 12.683594 6.9375 12.566406 C 6.648438 12.292969 6.425781 11.605469 6.46875 11.074219 C 6.507812 10.621094 6.578125 10.304688 6.675781 10.042969 C 6.480469 10.148438 6.289062 10.253906 6.097656 10.363281 L 5.785156 10.546875 L 5.792969 10.566406 C 6.054688 11.058594 6.121094 12.136719 5.554688 12.96875 C 4.992188 13.796875 3.9375 14.304688 2.910156 14.023438 C 2.582031 13.933594 2.082031 13.257812 2.511719 12.320312 C 2.890625 11.492188 4.414062 10.710938 4.8125 10.515625 L 4.921875 10.457031 C 4.125 9.769531 2.128906 8.84375 1.851562 7.417969 C 1.769531 7.019531 1.960938 6.058594 3.160156 4.957031 C 4.167969 4.03125 5.566406 3.320312 6.863281 2.867188 C 9.035156 2.109375 11.332031 2.558594 11.6875 3.921875 C 12.035156 5.261719 10.851562 6.863281 9.335938 7.4375 C 7.984375 7.953125 6.867188 7.871094 6.40625 7.722656 C 5.886719 7.554688 5.578125 7.214844 5.503906 7.023438 C 5.476562 6.949219 5.425781 6.824219 5.503906 6.78125 C 5.554688 6.753906 5.574219 6.761719 5.703125 6.902344 C 5.828125 7.039062 6.332031 7.402344 7.28125 7.296875 C 9.78125 7.019531 11.289062 5.109375 10.8125 4.082031 C 10.480469 3.363281 8.554688 3.039062 6.144531 4.21875 C 3.207031 5.660156 3.046875 6.84375 3.023438 7.296875 C 2.953125 8.535156 4.578125 9.1875 5.457031 10.113281 L 5.492188 10.148438 C 5.65625 10.058594 5.828125 9.964844 6 9.871094 C 6.351562 9.683594 6.703125 9.492188 7.058594 9.304688 C 7.367188 8.863281 7.996094 8.375 8.449219 8.375 C 9.171875 8.375 8.921875 9.398438 8.921875 9.398438 C 8.921875 9.398438 8.9375 9.351562 8.957031 9.351562 C 8.980469 9.351562 9.058594 9.214844 9.28125 9.296875 C 9.511719 9.378906 9.460938 9.539062 9.460938 9.554688 C 9.464844 9.585938 9.191406 10.496094 9.074219 11.078125 C 9.019531 11.359375 9.050781 11.5625 9.070312 11.5625 C 9.089844 11.5625 9.136719 11.488281 9.179688 11.414062 L 9.179688 11.410156 C 9.179688 11.410156 9.210938 11.355469 9.265625 11.25 L 9.273438 11.230469 C 9.363281 11.058594 9.449219 10.882812 9.53125 10.707031 C 9.730469 10.269531 10.5 8.589844 10.566406 8.402344 C 10.628906 8.214844 10.664062 8.023438 10.695312 7.941406 C 10.726562 7.859375 11 7.796875 11.316406 7.796875 C 11.632812 7.800781 11.664062 7.933594 11.667969 7.960938 C 11.667969 7.988281 11.515625 8.359375 11.480469 8.617188 C 11.445312 8.878906 11.480469 9.011719 11.507812 9.230469 C 11.527344 9.371094 11.617188 9.554688 11.726562 9.761719 C 12.054688 9.234375 12.632812 8.222656 12.6875 7.941406 C 12.726562 7.746094 12.785156 7.5625 12.820312 7.480469 C 12.851562 7.398438 13.121094 7.335938 13.4375 7.335938 C 13.757812 7.339844 13.789062 7.472656 13.792969 7.5 C 13.792969 7.527344 13.640625 7.898438 13.605469 8.15625 C 13.570312 8.417969 13.605469 8.550781 13.632812 8.769531 C 13.65625 8.957031 13.804688 9.207031 13.949219 9.496094 C 14.351562 9.300781 14.820312 9.171875 15.371094 9.167969 C 15.597656 9.167969 15.863281 9.191406 16 9.230469 L 16 4.917969 C 16 4.613281 15.839844 4.332031 15.574219 4.183594 L 8.414062 0.113281 C 8.148438 -0.0351562 7.816406 -0.0351562 7.550781 0.113281 L 0.410156 4.179688 C 0.144531 4.332031 0 4.613281 0 4.917969 L 0 13.054688 C 0 13.355469 0.144531 13.636719 0.410156 13.789062 L 7.5625 17.859375 C 7.828125 18.011719 8.15625 18.011719 8.421875 17.859375 L 15.578125 13.789062 C 15.84375 13.636719 16 13.355469 16 13.054688 L 16 9.765625 C 15.910156 9.738281 15.777344 9.71875 15.648438 9.703125 Z M 7.945312 9.277344 C 7.792969 9.445312 7.53125 9.882812 7.40625 10.246094 C 7.164062 10.972656 7.269531 11.707031 7.441406 11.753906 C 7.644531 11.804688 7.972656 10.835938 8.132812 10.457031 C 8.230469 10.21875 8.613281 9.167969 8.53125 9.027344 C 8.464844 8.917969 8.191406 9.003906 7.945312 9.277344 Z M 10.730469 11.71875 C 10.730469 11.71875 10.679688 11.765625 10.703125 11.777344 C 10.730469 11.792969 10.792969 11.773438 10.859375 11.738281 C 11.046875 11.621094 11.472656 11.328125 11.476562 10.894531 C 11.476562 10.882812 11.472656 10.871094 11.472656 10.859375 C 11.386719 10.972656 11.296875 11.082031 11.207031 11.195312 C 11.070312 11.359375 10.730469 11.71875 10.730469 11.71875 Z M 10.730469 11.71875 "/>
</g>
</svg>
