<?xml version="1.0" encoding="UTF-8"?>
<svg xmlns="http://www.w3.org/2000/svg" xmlns:xlink="http://www.w3.org/1999/xlink" width="16px" height="16px" viewBox="0 0 16 16" version="1.1">
<defs>
<filter id="alpha" filterUnits="objectBoundingBox" x="0%" y="0%" width="100%" height="100%">
  <feColorMatrix type="matrix" in="SourceGraphic" values="0 0 0 0 1 0 0 0 0 1 0 0 0 0 1 0 0 0 1 0"/>
</filter>
<mask id="mask0">
  <g filter="url(#alpha)">
<rect x="0" y="0" width="16" height="16" style="fill:rgb(0%,0%,0%);fill-opacity:0.501961;stroke:none;"/>
  </g>
</mask>
<clipPath id="clip1">
  <rect x="0" y="0" width="16" height="16"/>
</clipPath>
<g id="surface5" clip-path="url(#clip1)">
<path style=" stroke:none;fill-rule:nonzero;fill:rgb(81.568627%,83.137255%,84.705882%);fill-opacity:1;" d="M 10.285156 13.714844 L 11.046875 13.714844 C 11.261719 13.714844 11.429688 13.882812 11.429688 14.09375 C 11.429688 14.308594 11.261719 14.476562 11.046875 14.476562 L 10.285156 14.476562 C 10.074219 14.476562 9.90625 14.308594 9.90625 14.09375 C 9.90625 13.882812 10.074219 13.714844 10.285156 13.714844 Z M 10.285156 13.714844 "/>
</g>
<mask id="mask1">
  <g filter="url(#alpha)">
<rect x="0" y="0" width="16" height="16" style="fill:rgb(0%,0%,0%);fill-opacity:0.501961;stroke:none;"/>
  </g>
</mask>
<clipPath id="clip2">
  <rect x="0" y="0" width="16" height="16"/>
</clipPath>
<g id="surface8" clip-path="url(#clip2)">
<path style=" stroke:none;fill-rule:nonzero;fill:rgb(81.568627%,83.137255%,84.705882%);fill-opacity:1;" d="M 5.714844 13.714844 L 8.761719 13.714844 C 8.976562 13.714844 9.144531 13.882812 9.144531 14.09375 C 9.144531 14.308594 8.976562 14.476562 8.761719 14.476562 L 5.714844 14.476562 C 5.5 14.476562 5.332031 14.308594 5.332031 14.09375 C 5.332031 13.882812 5.5 13.714844 5.714844 13.714844 Z M 5.714844 13.714844 "/>
</g>
<mask id="mask2">
  <g filter="url(#alpha)">
<rect x="0" y="0" width="16" height="16" style="fill:rgb(0%,0%,0%);fill-opacity:0.501961;stroke:none;"/>
  </g>
</mask>
<clipPath id="clip3">
  <rect x="0" y="0" width="16" height="16"/>
</clipPath>
<g id="surface11" clip-path="url(#clip3)">
<path style=" stroke:none;fill-rule:nonzero;fill:rgb(81.568627%,83.137255%,84.705882%);fill-opacity:1;" d="M 12.570312 13.714844 L 15.617188 13.714844 C 15.832031 13.714844 16 13.882812 16 14.09375 C 16 14.308594 15.832031 14.476562 15.617188 14.476562 L 12.570312 14.476562 C 12.359375 14.476562 12.191406 14.308594 12.191406 14.09375 C 12.191406 13.882812 12.359375 13.714844 12.570312 13.714844 Z M 12.570312 13.714844 "/>
</g>
<mask id="mask3">
  <g filter="url(#alpha)">
<rect x="0" y="0" width="16" height="16" style="fill:rgb(0%,0%,0%);fill-opacity:0.501961;stroke:none;"/>
  </g>
</mask>
<clipPath id="clip4">
  <rect x="0" y="0" width="16" height="16"/>
</clipPath>
<g id="surface14" clip-path="url(#clip4)">
<path style=" stroke:none;fill-rule:nonzero;fill:rgb(81.568627%,83.137255%,84.705882%);fill-opacity:1;" d="M 11.046875 0 L 15.617188 0 C 15.832031 0 16 0.167969 16 0.382812 C 16 0.59375 15.832031 0.761719 15.617188 0.761719 L 11.046875 0.761719 C 10.835938 0.761719 10.667969 0.59375 10.667969 0.382812 C 10.667969 0.167969 10.835938 0 11.046875 0 Z M 11.046875 0 "/>
</g>
<mask id="mask4">
  <g filter="url(#alpha)">
<rect x="0" y="0" width="16" height="16" style="fill:rgb(0%,0%,0%);fill-opacity:0.501961;stroke:none;"/>
  </g>
</mask>
<clipPath id="clip5">
  <rect x="0" y="0" width="16" height="16"/>
</clipPath>
<g id="surface17" clip-path="url(#clip5)">
<path style=" stroke:none;fill-rule:nonzero;fill:rgb(81.568627%,83.137255%,84.705882%);fill-opacity:1;" d="M 11.046875 10.667969 L 12.570312 10.667969 C 12.785156 10.667969 12.953125 10.835938 12.953125 11.046875 C 12.953125 11.261719 12.785156 11.429688 12.570312 11.429688 L 11.046875 11.429688 C 10.835938 11.429688 10.667969 11.261719 10.667969 11.046875 C 10.667969 10.835938 10.835938 10.667969 11.046875 10.667969 Z M 11.046875 10.667969 "/>
</g>
<mask id="mask5">
  <g filter="url(#alpha)">
<rect x="0" y="0" width="16" height="16" style="fill:rgb(0%,0%,0%);fill-opacity:0.501961;stroke:none;"/>
  </g>
</mask>
<clipPath id="clip6">
  <rect x="0" y="0" width="16" height="16"/>
</clipPath>
<g id="surface20" clip-path="url(#clip6)">
<path style=" stroke:none;fill-rule:nonzero;fill:rgb(81.568627%,83.137255%,84.705882%);fill-opacity:1;" d="M 14.09375 10.667969 L 15.617188 10.667969 C 15.832031 10.667969 16 10.835938 16 11.046875 C 16 11.261719 15.832031 11.429688 15.617188 11.429688 L 14.09375 11.429688 C 13.882812 11.429688 13.714844 11.261719 13.714844 11.046875 C 13.714844 10.835938 13.882812 10.667969 14.09375 10.667969 Z M 14.09375 10.667969 "/>
</g>
<mask id="mask6">
  <g filter="url(#alpha)">
<rect x="0" y="0" width="16" height="16" style="fill:rgb(0%,0%,0%);fill-opacity:0.501961;stroke:none;"/>
  </g>
</mask>
<clipPath id="clip7">
  <rect x="0" y="0" width="16" height="16"/>
</clipPath>
<g id="surface23" clip-path="url(#clip7)">
<path style=" stroke:none;fill-rule:nonzero;fill:rgb(81.568627%,83.137255%,84.705882%);fill-opacity:1;" d="M 13.332031 9.144531 L 15.617188 9.144531 C 15.832031 9.144531 16 9.308594 16 9.523438 C 16 9.738281 15.832031 9.90625 15.617188 9.90625 L 13.332031 9.90625 C 13.121094 9.90625 12.953125 9.738281 12.953125 9.523438 C 12.953125 9.308594 13.121094 9.144531 13.332031 9.144531 Z M 13.332031 9.144531 "/>
</g>
<mask id="mask7">
  <g filter="url(#alpha)">
<rect x="0" y="0" width="16" height="16" style="fill:rgb(0%,0%,0%);fill-opacity:0.501961;stroke:none;"/>
  </g>
</mask>
<clipPath id="clip8">
  <rect x="0" y="0" width="16" height="16"/>
</clipPath>
<g id="surface26" clip-path="url(#clip8)">
<path style=" stroke:none;fill-rule:nonzero;fill:rgb(81.568627%,83.137255%,84.705882%);fill-opacity:1;" d="M 13.332031 1.523438 L 15.617188 1.523438 C 15.832031 1.523438 16 1.691406 16 1.90625 C 16 2.117188 15.832031 2.285156 15.617188 2.285156 L 13.332031 2.285156 C 13.121094 2.285156 12.953125 2.117188 12.953125 1.90625 C 12.953125 1.691406 13.121094 1.523438 13.332031 1.523438 Z M 13.332031 1.523438 "/>
</g>
<mask id="mask8">
  <g filter="url(#alpha)">
<rect x="0" y="0" width="16" height="16" style="fill:rgb(0%,0%,0%);fill-opacity:0.501961;stroke:none;"/>
  </g>
</mask>
<clipPath id="clip9">
  <rect x="0" y="0" width="16" height="16"/>
</clipPath>
<g id="surface29" clip-path="url(#clip9)">
<path style=" stroke:none;fill-rule:nonzero;fill:rgb(81.568627%,83.137255%,84.705882%);fill-opacity:1;" d="M 14.09375 7.617188 L 15.617188 7.617188 C 15.832031 7.617188 16 7.785156 16 8 C 16 8.214844 15.832031 8.382812 15.617188 8.382812 L 14.09375 8.382812 C 13.882812 8.382812 13.714844 8.214844 13.714844 8 C 13.714844 7.785156 13.882812 7.617188 14.09375 7.617188 Z M 14.09375 7.617188 "/>
</g>
<mask id="mask9">
  <g filter="url(#alpha)">
<rect x="0" y="0" width="16" height="16" style="fill:rgb(0%,0%,0%);fill-opacity:0.501961;stroke:none;"/>
  </g>
</mask>
<clipPath id="clip10">
  <rect x="0" y="0" width="16" height="16"/>
</clipPath>
<g id="surface32" clip-path="url(#clip10)">
<path style=" stroke:none;fill-rule:nonzero;fill:rgb(81.568627%,83.137255%,84.705882%);fill-opacity:1;" d="M 14.09375 3.046875 L 15.617188 3.046875 C 15.832031 3.046875 16 3.214844 16 3.429688 C 16 3.640625 15.832031 3.808594 15.617188 3.808594 L 14.09375 3.808594 C 13.882812 3.808594 13.714844 3.640625 13.714844 3.429688 C 13.714844 3.214844 13.882812 3.046875 14.09375 3.046875 Z M 14.09375 3.046875 "/>
</g>
<mask id="mask10">
  <g filter="url(#alpha)">
<rect x="0" y="0" width="16" height="16" style="fill:rgb(0%,0%,0%);fill-opacity:0.501961;stroke:none;"/>
  </g>
</mask>
<clipPath id="clip11">
  <rect x="0" y="0" width="16" height="16"/>
</clipPath>
<g id="surface35" clip-path="url(#clip11)">
<path style=" stroke:none;fill-rule:nonzero;fill:rgb(81.568627%,83.137255%,84.705882%);fill-opacity:1;" d="M 14.855469 4.570312 L 15.617188 4.570312 C 15.832031 4.570312 16 4.738281 16 4.953125 C 16 5.164062 15.832031 5.332031 15.617188 5.332031 L 14.855469 5.332031 C 14.644531 5.332031 14.476562 5.164062 14.476562 4.953125 C 14.476562 4.738281 14.644531 4.570312 14.855469 4.570312 Z M 14.855469 4.570312 "/>
</g>
<mask id="mask11">
  <g filter="url(#alpha)">
<rect x="0" y="0" width="16" height="16" style="fill:rgb(0%,0%,0%);fill-opacity:0.501961;stroke:none;"/>
  </g>
</mask>
<clipPath id="clip12">
  <rect x="0" y="0" width="16" height="16"/>
</clipPath>
<g id="surface38" clip-path="url(#clip12)">
<path style=" stroke:none;fill-rule:nonzero;fill:rgb(81.568627%,83.137255%,84.705882%);fill-opacity:1;" d="M 14.855469 6.09375 L 15.617188 6.09375 C 15.832031 6.09375 16 6.261719 16 6.476562 C 16 6.691406 15.832031 6.855469 15.617188 6.855469 L 14.855469 6.855469 C 14.644531 6.855469 14.476562 6.691406 14.476562 6.476562 C 14.476562 6.261719 14.644531 6.09375 14.855469 6.09375 Z M 14.855469 6.09375 "/>
</g>
<mask id="mask12">
  <g filter="url(#alpha)">
<rect x="0" y="0" width="16" height="16" style="fill:rgb(0%,0%,0%);fill-opacity:0.501961;stroke:none;"/>
  </g>
</mask>
<clipPath id="clip13">
  <rect x="0" y="0" width="16" height="16"/>
</clipPath>
<g id="surface41" clip-path="url(#clip13)">
<path style=" stroke:none;fill-rule:nonzero;fill:rgb(81.568627%,83.137255%,84.705882%);fill-opacity:1;" d="M 8.761719 12.191406 L 15.617188 12.191406 C 15.832031 12.191406 16 12.359375 16 12.570312 C 16 12.785156 15.832031 12.953125 15.617188 12.953125 L 8.761719 12.953125 C 8.546875 12.953125 8.382812 12.785156 8.382812 12.570312 C 8.382812 12.359375 8.546875 12.191406 8.761719 12.191406 Z M 8.761719 12.191406 "/>
</g>
<mask id="mask13">
  <g filter="url(#alpha)">
<rect x="0" y="0" width="16" height="16" style="fill:rgb(0%,0%,0%);fill-opacity:0.501961;stroke:none;"/>
  </g>
</mask>
<clipPath id="clip14">
  <rect x="0" y="0" width="16" height="16"/>
</clipPath>
<g id="surface44" clip-path="url(#clip14)">
<path style=" stroke:none;fill-rule:nonzero;fill:rgb(81.568627%,83.137255%,84.705882%);fill-opacity:1;" d="M 5.714844 12.191406 L 7.238281 12.191406 C 7.453125 12.191406 7.617188 12.359375 7.617188 12.570312 C 7.617188 12.785156 7.453125 12.953125 7.238281 12.953125 L 5.714844 12.953125 C 5.5 12.953125 5.332031 12.785156 5.332031 12.570312 C 5.332031 12.359375 5.5 12.191406 5.714844 12.191406 Z M 5.714844 12.191406 "/>
</g>
<mask id="mask14">
  <g filter="url(#alpha)">
<rect x="0" y="0" width="16" height="16" style="fill:rgb(0%,0%,0%);fill-opacity:0.501961;stroke:none;"/>
  </g>
</mask>
<clipPath id="clip15">
  <rect x="0" y="0" width="16" height="16"/>
</clipPath>
<g id="surface47" clip-path="url(#clip15)">
<path style=" stroke:none;fill-rule:nonzero;fill:rgb(81.568627%,83.137255%,84.705882%);fill-opacity:1;" d="M 11.808594 15.238281 L 15.617188 15.238281 C 15.832031 15.238281 16 15.40625 16 15.617188 C 16 15.832031 15.832031 16 15.617188 16 L 11.808594 16 C 11.597656 16 11.429688 15.832031 11.429688 15.617188 C 11.429688 15.40625 11.597656 15.238281 11.808594 15.238281 Z M 11.808594 15.238281 "/>
</g>
<mask id="mask15">
  <g filter="url(#alpha)">
<rect x="0" y="0" width="16" height="16" style="fill:rgb(0%,0%,0%);fill-opacity:0.501961;stroke:none;"/>
  </g>
</mask>
<clipPath id="clip16">
  <rect x="0" y="0" width="16" height="16"/>
</clipPath>
<g id="surface50" clip-path="url(#clip16)">
<path style=" stroke:none;fill-rule:nonzero;fill:rgb(81.568627%,83.137255%,84.705882%);fill-opacity:1;" d="M 5.714844 15.238281 L 10.285156 15.238281 C 10.5 15.238281 10.667969 15.40625 10.667969 15.617188 C 10.667969 15.832031 10.5 16 10.285156 16 L 5.714844 16 C 5.5 16 5.332031 15.832031 5.332031 15.617188 C 5.332031 15.40625 5.5 15.238281 5.714844 15.238281 Z M 5.714844 15.238281 "/>
</g>
<mask id="mask16">
  <g filter="url(#alpha)">
<rect x="0" y="0" width="16" height="16" style="fill:rgb(0%,0%,0%);fill-opacity:0.501961;stroke:none;"/>
  </g>
</mask>
<clipPath id="clip17">
  <rect x="0" y="0" width="16" height="16"/>
</clipPath>
<g id="surface53" clip-path="url(#clip17)">
<path style=" stroke:none;fill-rule:nonzero;fill:rgb(81.568627%,83.137255%,84.705882%);fill-opacity:1;" d="M 5.714844 4.570312 L 8 4.570312 C 8.214844 4.570312 8.382812 4.738281 8.382812 4.953125 C 8.382812 5.164062 8.214844 5.332031 8 5.332031 L 5.714844 5.332031 C 5.5 5.332031 5.332031 5.164062 5.332031 4.953125 C 5.332031 4.738281 5.5 4.570312 5.714844 4.570312 Z M 5.714844 4.570312 "/>
</g>
<mask id="mask17">
  <g filter="url(#alpha)">
<rect x="0" y="0" width="16" height="16" style="fill:rgb(0%,0%,0%);fill-opacity:0.501961;stroke:none;"/>
  </g>
</mask>
<clipPath id="clip18">
  <rect x="0" y="0" width="16" height="16"/>
</clipPath>
<g id="surface56" clip-path="url(#clip18)">
<path style=" stroke:none;fill-rule:nonzero;fill:rgb(81.568627%,83.137255%,84.705882%);fill-opacity:1;" d="M 5.714844 6.09375 L 8 6.09375 C 8.214844 6.09375 8.382812 6.261719 8.382812 6.476562 C 8.382812 6.691406 8.214844 6.855469 8 6.855469 L 5.714844 6.855469 C 5.5 6.855469 5.332031 6.691406 5.332031 6.476562 C 5.332031 6.261719 5.5 6.09375 5.714844 6.09375 Z M 5.714844 6.09375 "/>
</g>
</defs>
<g id="surface1">
<path style=" stroke:none;fill-rule:nonzero;fill:rgb(33.72549%,70.196078%,70.588235%);fill-opacity:1;" d="M 11.808594 3.046875 L 12.570312 3.046875 C 12.785156 3.046875 12.953125 3.214844 12.953125 3.429688 C 12.953125 3.640625 12.785156 3.808594 12.570312 3.808594 L 11.808594 3.808594 C 11.597656 3.808594 11.429688 3.640625 11.429688 3.429688 C 11.429688 3.214844 11.597656 3.046875 11.808594 3.046875 Z M 11.808594 3.046875 "/>
<path style=" stroke:none;fill-rule:nonzero;fill:rgb(91.764706%,36.862745%,36.862745%);fill-opacity:1;" d="M 0.382812 15.238281 L 4.191406 15.238281 C 4.402344 15.238281 4.570312 15.40625 4.570312 15.617188 C 4.570312 15.832031 4.402344 16 4.191406 16 L 0.382812 16 C 0.167969 16 0 15.832031 0 15.617188 C 0 15.40625 0.167969 15.238281 0.382812 15.238281 Z M 0.382812 15.238281 "/>
<path style=" stroke:none;fill-rule:nonzero;fill:rgb(74.901961%,52.156863%,74.901961%);fill-opacity:1;" d="M 9.523438 9.144531 L 11.808594 9.144531 C 12.023438 9.144531 12.191406 9.308594 12.191406 9.523438 C 12.191406 9.738281 12.023438 9.90625 11.808594 9.90625 L 9.523438 9.90625 C 9.308594 9.90625 9.144531 9.738281 9.144531 9.523438 C 9.144531 9.308594 9.308594 9.144531 9.523438 9.144531 Z M 9.523438 9.144531 "/>
<path style=" stroke:none;fill-rule:nonzero;fill:rgb(91.764706%,36.862745%,36.862745%);fill-opacity:1;" d="M 4.953125 9.144531 L 8 9.144531 C 8.214844 9.144531 8.382812 9.308594 8.382812 9.523438 C 8.382812 9.738281 8.214844 9.90625 8 9.90625 L 4.953125 9.90625 C 4.738281 9.90625 4.570312 9.738281 4.570312 9.523438 C 4.570312 9.308594 4.738281 9.144531 4.953125 9.144531 Z M 4.953125 9.144531 "/>
<path style=" stroke:none;fill-rule:nonzero;fill:rgb(33.72549%,70.196078%,70.588235%);fill-opacity:1;" d="M 0.382812 9.144531 L 3.429688 9.144531 C 3.640625 9.144531 3.808594 9.308594 3.808594 9.523438 C 3.808594 9.738281 3.640625 9.90625 3.429688 9.90625 L 0.382812 9.90625 C 0.167969 9.90625 0 9.738281 0 9.523438 C 0 9.308594 0.167969 9.144531 0.382812 9.144531 Z M 0.382812 9.144531 "/>
<path style=" stroke:none;fill-rule:nonzero;fill:rgb(74.901961%,52.156863%,74.901961%);fill-opacity:1;" d="M 0.382812 12.191406 L 4.191406 12.191406 C 4.402344 12.191406 4.570312 12.359375 4.570312 12.570312 C 4.570312 12.785156 4.402344 12.953125 4.191406 12.953125 L 0.382812 12.953125 C 0.167969 12.953125 0 12.785156 0 12.570312 C 0 12.359375 0.167969 12.191406 0.382812 12.191406 Z M 0.382812 12.191406 "/>
<path style=" stroke:none;fill-rule:nonzero;fill:rgb(74.901961%,52.156863%,74.901961%);fill-opacity:1;" d="M 0.382812 6.09375 L 4.191406 6.09375 C 4.402344 6.09375 4.570312 6.261719 4.570312 6.476562 C 4.570312 6.691406 4.402344 6.855469 4.191406 6.855469 L 0.382812 6.855469 C 0.167969 6.855469 0 6.691406 0 6.476562 C 0 6.261719 0.167969 6.09375 0.382812 6.09375 Z M 0.382812 6.09375 "/>
<path style=" stroke:none;fill-rule:nonzero;fill:rgb(96.862745%,72.941176%,24.313725%);fill-opacity:1;" d="M 4.191406 1.523438 L 11.808594 1.523438 C 12.023438 1.523438 12.191406 1.691406 12.191406 1.90625 C 12.191406 2.117188 12.023438 2.285156 11.808594 2.285156 L 4.191406 2.285156 C 3.976562 2.285156 3.808594 2.117188 3.808594 1.90625 C 3.808594 1.691406 3.976562 1.523438 4.191406 1.523438 Z M 4.191406 1.523438 "/>
<path style=" stroke:none;fill-rule:nonzero;fill:rgb(91.764706%,36.862745%,36.862745%);fill-opacity:1;" d="M 0.382812 1.523438 L 2.667969 1.523438 C 2.878906 1.523438 3.046875 1.691406 3.046875 1.90625 C 3.046875 2.117188 2.878906 2.285156 2.667969 2.285156 L 0.382812 2.285156 C 0.167969 2.285156 0 2.117188 0 1.90625 C 0 1.691406 0.167969 1.523438 0.382812 1.523438 Z M 0.382812 1.523438 "/>
<path style=" stroke:none;fill-rule:nonzero;fill:rgb(96.862745%,72.941176%,24.313725%);fill-opacity:1;" d="M 3.429688 13.714844 L 4.191406 13.714844 C 4.402344 13.714844 4.570312 13.882812 4.570312 14.09375 C 4.570312 14.308594 4.402344 14.476562 4.191406 14.476562 L 3.429688 14.476562 C 3.214844 14.476562 3.046875 14.308594 3.046875 14.09375 C 3.046875 13.882812 3.214844 13.714844 3.429688 13.714844 Z M 3.429688 13.714844 "/>
<path style=" stroke:none;fill-rule:nonzero;fill:rgb(33.72549%,70.196078%,70.588235%);fill-opacity:1;" d="M 3.429688 4.570312 L 4.191406 4.570312 C 4.402344 4.570312 4.570312 4.738281 4.570312 4.953125 C 4.570312 5.164062 4.402344 5.332031 4.191406 5.332031 L 3.429688 5.332031 C 3.214844 5.332031 3.046875 5.164062 3.046875 4.953125 C 3.046875 4.738281 3.214844 4.570312 3.429688 4.570312 Z M 3.429688 4.570312 "/>
<path style=" stroke:none;fill-rule:nonzero;fill:rgb(33.72549%,70.196078%,70.588235%);fill-opacity:1;" d="M 0.382812 13.714844 L 1.90625 13.714844 C 2.117188 13.714844 2.285156 13.882812 2.285156 14.09375 C 2.285156 14.308594 2.117188 14.476562 1.90625 14.476562 L 0.382812 14.476562 C 0.167969 14.476562 0 14.308594 0 14.09375 C 0 13.882812 0.167969 13.714844 0.382812 13.714844 Z M 0.382812 13.714844 "/>
<path style=" stroke:none;fill-rule:nonzero;fill:rgb(96.862745%,72.941176%,24.313725%);fill-opacity:1;" d="M 0.382812 4.570312 L 1.90625 4.570312 C 2.117188 4.570312 2.285156 4.738281 2.285156 4.953125 C 2.285156 5.164062 2.117188 5.332031 1.90625 5.332031 L 0.382812 5.332031 C 0.167969 5.332031 0 5.164062 0 4.953125 C 0 4.738281 0.167969 4.570312 0.382812 4.570312 Z M 0.382812 4.570312 "/>
<use xlink:href="#surface5" mask="url(#mask0)"/>
<use xlink:href="#surface8" mask="url(#mask1)"/>
<use xlink:href="#surface11" mask="url(#mask2)"/>
<path style=" stroke:none;fill-rule:nonzero;fill:rgb(33.72549%,70.196078%,70.588235%);fill-opacity:1;" d="M 6.476562 7.617188 L 12.570312 7.617188 C 12.785156 7.617188 12.953125 7.785156 12.953125 8 C 12.953125 8.214844 12.785156 8.382812 12.570312 8.382812 L 6.476562 8.382812 C 6.261719 8.382812 6.09375 8.214844 6.09375 8 C 6.09375 7.785156 6.261719 7.617188 6.476562 7.617188 Z M 6.476562 7.617188 "/>
<path style=" stroke:none;fill-rule:nonzero;fill:rgb(96.862745%,72.941176%,24.313725%);fill-opacity:1;" d="M 2.667969 7.617188 L 4.953125 7.617188 C 5.164062 7.617188 5.332031 7.785156 5.332031 8 C 5.332031 8.214844 5.164062 8.382812 4.953125 8.382812 L 2.667969 8.382812 C 2.453125 8.382812 2.285156 8.214844 2.285156 8 C 2.285156 7.785156 2.453125 7.617188 2.667969 7.617188 Z M 2.667969 7.617188 "/>
<path style=" stroke:none;fill-rule:nonzero;fill:rgb(91.764706%,36.862745%,36.862745%);fill-opacity:1;" d="M 0.382812 7.617188 L 1.144531 7.617188 C 1.355469 7.617188 1.523438 7.785156 1.523438 8 C 1.523438 8.214844 1.355469 8.382812 1.144531 8.382812 L 0.382812 8.382812 C 0.167969 8.382812 0 8.214844 0 8 C 0 7.785156 0.167969 7.617188 0.382812 7.617188 Z M 0.382812 7.617188 "/>
<path style=" stroke:none;fill-rule:nonzero;fill:rgb(74.901961%,52.156863%,74.901961%);fill-opacity:1;" d="M 7.238281 3.046875 L 10.285156 3.046875 C 10.5 3.046875 10.667969 3.214844 10.667969 3.429688 C 10.667969 3.640625 10.5 3.808594 10.285156 3.808594 L 7.238281 3.808594 C 7.023438 3.808594 6.855469 3.640625 6.855469 3.429688 C 6.855469 3.214844 7.023438 3.046875 7.238281 3.046875 Z M 7.238281 3.046875 "/>
<path style=" stroke:none;fill-rule:nonzero;fill:rgb(33.72549%,70.196078%,70.588235%);fill-opacity:1;" d="M 0.382812 3.046875 L 5.714844 3.046875 C 5.925781 3.046875 6.09375 3.214844 6.09375 3.429688 C 6.09375 3.640625 5.925781 3.808594 5.714844 3.808594 L 0.382812 3.808594 C 0.167969 3.808594 0 3.640625 0 3.429688 C 0 3.214844 0.167969 3.046875 0.382812 3.046875 Z M 0.382812 3.046875 "/>
<path style=" stroke:none;fill-rule:nonzero;fill:rgb(96.862745%,72.941176%,24.313725%);fill-opacity:1;" d="M 2.667969 10.667969 L 9.523438 10.667969 C 9.738281 10.667969 9.90625 10.835938 9.90625 11.046875 C 9.90625 11.261719 9.738281 11.429688 9.523438 11.429688 L 2.667969 11.429688 C 2.453125 11.429688 2.285156 11.261719 2.285156 11.046875 C 2.285156 10.835938 2.453125 10.667969 2.667969 10.667969 Z M 2.667969 10.667969 "/>
<path style=" stroke:none;fill-rule:nonzero;fill:rgb(74.901961%,52.156863%,74.901961%);fill-opacity:1;" d="M 0.382812 10.667969 L 1.144531 10.667969 C 1.355469 10.667969 1.523438 10.835938 1.523438 11.046875 C 1.523438 11.261719 1.355469 11.429688 1.144531 11.429688 L 0.382812 11.429688 C 0.167969 11.429688 0 11.261719 0 11.046875 C 0 10.835938 0.167969 10.667969 0.382812 10.667969 Z M 0.382812 10.667969 "/>
<path style=" stroke:none;fill-rule:nonzero;fill:rgb(91.764706%,36.862745%,36.862745%);fill-opacity:1;" d="M 9.523438 4.570312 L 13.332031 4.570312 C 13.546875 4.570312 13.714844 4.738281 13.714844 4.953125 C 13.714844 5.164062 13.546875 5.332031 13.332031 5.332031 L 9.523438 5.332031 C 9.308594 5.332031 9.144531 5.164062 9.144531 4.953125 C 9.144531 4.738281 9.308594 4.570312 9.523438 4.570312 Z M 9.523438 4.570312 "/>
<path style=" stroke:none;fill-rule:nonzero;fill:rgb(96.862745%,72.941176%,24.313725%);fill-opacity:1;" d="M 9.523438 6.09375 L 13.332031 6.09375 C 13.546875 6.09375 13.714844 6.261719 13.714844 6.476562 C 13.714844 6.691406 13.546875 6.855469 13.332031 6.855469 L 9.523438 6.855469 C 9.308594 6.855469 9.144531 6.691406 9.144531 6.476562 C 9.144531 6.261719 9.308594 6.09375 9.523438 6.09375 Z M 9.523438 6.09375 "/>
<path style=" stroke:none;fill-rule:nonzero;fill:rgb(33.72549%,70.196078%,70.588235%);fill-opacity:1;" d="M 0.382812 0 L 9.523438 0 C 9.738281 0 9.90625 0.167969 9.90625 0.382812 C 9.90625 0.59375 9.738281 0.761719 9.523438 0.761719 L 0.382812 0.761719 C 0.167969 0.761719 0 0.59375 0 0.382812 C 0 0.167969 0.167969 0 0.382812 0 Z M 0.382812 0 "/>
<use xlink:href="#surface14" mask="url(#mask3)"/>
<use xlink:href="#surface17" mask="url(#mask4)"/>
<use xlink:href="#surface20" mask="url(#mask5)"/>
<use xlink:href="#surface23" mask="url(#mask6)"/>
<use xlink:href="#surface26" mask="url(#mask7)"/>
<use xlink:href="#surface29" mask="url(#mask8)"/>
<use xlink:href="#surface32" mask="url(#mask9)"/>
<use xlink:href="#surface35" mask="url(#mask10)"/>
<use xlink:href="#surface38" mask="url(#mask11)"/>
<use xlink:href="#surface41" mask="url(#mask12)"/>
<use xlink:href="#surface44" mask="url(#mask13)"/>
<use xlink:href="#surface47" mask="url(#mask14)"/>
<use xlink:href="#surface50" mask="url(#mask15)"/>
<use xlink:href="#surface53" mask="url(#mask16)"/>
<use xlink:href="#surface56" mask="url(#mask17)"/>
</g>
</svg>
