<?xml version="1.0" encoding="UTF-8"?>
<svg xmlns="http://www.w3.org/2000/svg" xmlns:xlink="http://www.w3.org/1999/xlink" width="16px" height="16px" viewBox="0 0 16 18" version="1.1">
<g id="surface1">
<path style=" stroke:none;fill-rule:nonzero;fill:rgb(38.039216%,85.490196%,98.431373%);fill-opacity:1;" d="M 16 9 C 16 7.957031 14.671875 6.964844 12.636719 6.347656 C 13.105469 4.300781 12.898438 2.671875 11.980469 2.148438 C 11.765625 2.027344 11.519531 1.96875 11.25 1.96875 L 11.25 2.6875 C 11.398438 2.6875 11.519531 2.714844 11.621094 2.769531 C 12.0625 3.023438 12.257812 3.980469 12.105469 5.207031 C 12.070312 5.511719 12.011719 5.828125 11.941406 6.15625 C 11.300781 6 10.601562 5.882812 9.867188 5.804688 C 9.429688 5.207031 8.972656 4.667969 8.511719 4.195312 C 9.574219 3.21875 10.574219 2.683594 11.25 2.683594 L 11.25 1.964844 C 10.355469 1.964844 9.179688 2.597656 7.992188 3.691406 C 6.804688 2.605469 5.632812 1.980469 4.734375 1.980469 L 4.734375 2.695312 C 5.410156 2.695312 6.410156 3.226562 7.476562 4.199219 C 7.019531 4.671875 6.5625 5.207031 6.128906 5.804688 C 5.390625 5.882812 4.691406 6 4.054688 6.160156 C 3.980469 5.835938 3.921875 5.523438 3.882812 5.226562 C 3.730469 3.996094 3.921875 3.039062 4.359375 2.785156 C 4.457031 2.726562 4.585938 2.699219 4.734375 2.699219 L 4.734375 1.980469 C 4.460938 1.980469 4.214844 2.039062 4 2.164062 C 3.082031 2.683594 2.875 4.308594 3.347656 6.351562 C 1.320312 6.96875 0 7.957031 0 9 C 0 10.046875 1.328125 11.039062 3.363281 11.65625 C 2.894531 13.703125 3.101562 15.332031 4.019531 15.855469 C 4.234375 15.976562 4.480469 16.035156 4.753906 16.035156 C 5.652344 16.035156 6.824219 15.402344 8.011719 14.308594 C 9.199219 15.394531 10.375 16.019531 11.269531 16.019531 C 11.546875 16.019531 11.792969 15.964844 12.007812 15.839844 C 12.925781 15.320312 13.128906 13.691406 12.65625 11.652344 C 14.679688 11.035156 16 10.042969 16 9 Z M 11.753906 6.855469 C 11.632812 7.269531 11.484375 7.699219 11.3125 8.125 C 11.179688 7.867188 11.039062 7.609375 10.886719 7.351562 C 10.734375 7.09375 10.578125 6.84375 10.417969 6.597656 C 10.878906 6.667969 11.328125 6.75 11.753906 6.855469 Z M 10.261719 10.28125 C 10.003906 10.71875 9.746094 11.128906 9.472656 11.511719 C 8.988281 11.554688 8.496094 11.578125 8 11.578125 C 7.507812 11.578125 7.015625 11.554688 6.53125 11.515625 C 6.261719 11.132812 5.996094 10.722656 5.742188 10.292969 C 5.496094 9.871094 5.269531 9.441406 5.066406 9.011719 C 5.265625 8.578125 5.496094 8.148438 5.738281 7.726562 C 5.996094 7.292969 6.253906 6.878906 6.527344 6.496094 C 7.011719 6.453125 7.503906 6.433594 8 6.433594 C 8.492188 6.433594 8.984375 6.453125 9.46875 6.492188 C 9.738281 6.875 10.003906 7.285156 10.257812 7.71875 C 10.503906 8.140625 10.730469 8.566406 10.933594 9 C 10.730469 9.429688 10.503906 9.859375 10.261719 10.28125 Z M 11.3125 9.863281 C 11.488281 10.296875 11.640625 10.726562 11.761719 11.144531 C 11.335938 11.25 10.886719 11.335938 10.417969 11.402344 C 10.578125 11.15625 10.738281 10.902344 10.890625 10.640625 C 11.039062 10.382812 11.179688 10.121094 11.3125 9.863281 Z M 8.007812 13.300781 C 7.703125 12.992188 7.398438 12.648438 7.101562 12.269531 C 7.394531 12.28125 7.695312 12.292969 7.996094 12.292969 C 8.304688 12.292969 8.605469 12.285156 8.902344 12.269531 C 8.609375 12.648438 8.304688 12.992188 8.007812 13.300781 Z M 5.582031 11.402344 C 5.117188 11.335938 4.671875 11.253906 4.242188 11.148438 C 4.363281 10.734375 4.511719 10.304688 4.683594 9.878906 C 4.816406 10.136719 4.957031 10.394531 5.109375 10.648438 C 5.265625 10.90625 5.421875 11.160156 5.582031 11.402344 Z M 7.988281 4.703125 C 8.292969 5.011719 8.597656 5.355469 8.898438 5.734375 C 8.601562 5.71875 8.304688 5.710938 8 5.710938 C 7.695312 5.710938 7.390625 5.71875 7.09375 5.734375 C 7.386719 5.355469 7.691406 5.011719 7.988281 4.703125 Z M 5.578125 6.597656 C 5.417969 6.847656 5.257812 7.101562 5.105469 7.363281 C 4.957031 7.621094 4.816406 7.878906 4.683594 8.136719 C 4.507812 7.703125 4.355469 7.273438 4.234375 6.855469 C 4.660156 6.753906 5.109375 6.667969 5.578125 6.597656 Z M 2.625 10.632812 C 1.472656 10.144531 0.722656 9.507812 0.722656 9 C 0.722656 8.496094 1.472656 7.855469 2.625 7.371094 C 2.90625 7.253906 3.210938 7.148438 3.527344 7.046875 C 3.714844 7.679688 3.960938 8.335938 4.261719 9.007812 C 3.960938 9.679688 3.722656 10.332031 3.539062 10.960938 C 3.214844 10.859375 2.910156 10.75 2.625 10.632812 Z M 4.378906 15.230469 C 3.9375 14.980469 3.742188 14.023438 3.894531 12.792969 C 3.929688 12.492188 3.988281 12.171875 4.058594 11.847656 C 4.699219 12.003906 5.398438 12.121094 6.132812 12.199219 C 6.570312 12.792969 7.027344 13.335938 7.488281 13.808594 C 6.425781 14.785156 5.425781 15.320312 4.75 15.320312 C 4.601562 15.316406 4.476562 15.285156 4.378906 15.230469 Z M 12.117188 12.777344 C 12.269531 14.007812 12.078125 14.964844 11.640625 15.21875 C 11.542969 15.277344 11.414062 15.304688 11.265625 15.304688 C 10.589844 15.304688 9.589844 14.773438 8.523438 13.800781 C 8.980469 13.328125 9.4375 12.792969 9.871094 12.195312 C 10.609375 12.117188 11.308594 12 11.945312 11.839844 C 12.019531 12.167969 12.078125 12.480469 12.117188 12.777344 Z M 13.371094 10.632812 C 13.089844 10.75 12.785156 10.855469 12.46875 10.957031 C 12.28125 10.324219 12.039062 9.667969 11.734375 8.996094 C 12.035156 8.324219 12.277344 7.671875 12.457031 7.042969 C 12.78125 7.144531 13.085938 7.253906 13.375 7.371094 C 14.527344 7.859375 15.277344 8.496094 15.277344 9 C 15.273438 9.507812 14.527344 10.148438 13.371094 10.632812 Z M 13.371094 10.632812 "/>
<path style=" stroke:none;fill-rule:nonzero;fill:rgb(38.039216%,85.490196%,98.431373%);fill-opacity:1;" d="M 9.488281 9 C 9.488281 9.8125 8.820312 10.472656 7.996094 10.472656 C 7.171875 10.472656 6.507812 9.8125 6.507812 9 C 6.507812 8.1875 7.171875 7.53125 7.996094 7.53125 C 8.820312 7.53125 9.488281 8.1875 9.488281 9 Z M 9.488281 9 "/>
</g>
</svg>
