<?xml version="1.0" encoding="UTF-8"?>
<svg xmlns="http://www.w3.org/2000/svg" xmlns:xlink="http://www.w3.org/1999/xlink" width="16px" height="16px" viewBox="0 0 16 16" version="1.1">
<g id="surface1">
<path style=" stroke:none;fill-rule:nonzero;fill:rgb(0%,47.843137%,80%);fill-opacity:1;" d="M 0 8 L 0 0 L 16 0 L 16 16 L 0 16 "/>
<path style=" stroke:none;fill-rule:nonzero;fill:rgb(100%,100%,100%);fill-opacity:1;" d="M 3.507812 8.027344 L 3.507812 8.679688 L 5.589844 8.679688 L 5.589844 14.601562 L 7.0625 14.601562 L 7.0625 8.679688 L 9.144531 8.679688 L 9.144531 8.039062 C 9.144531 7.679688 9.144531 7.386719 9.128906 7.378906 C 9.128906 7.367188 7.859375 7.363281 6.320312 7.363281 L 3.519531 7.375 L 3.519531 8.03125 Z M 12.855469 7.359375 C 13.265625 7.457031 13.574219 7.640625 13.855469 7.933594 C 14.003906 8.09375 14.222656 8.371094 14.238281 8.445312 C 14.238281 8.46875 13.546875 8.9375 13.128906 9.195312 C 13.113281 9.207031 13.046875 9.140625 12.984375 9.035156 C 12.777344 8.738281 12.5625 8.613281 12.230469 8.589844 C 11.753906 8.554688 11.433594 8.808594 11.433594 9.226562 C 11.433594 9.355469 11.457031 9.429688 11.503906 9.53125 C 11.613281 9.753906 11.8125 9.882812 12.433594 10.15625 C 13.574219 10.648438 14.070312 10.972656 14.371094 11.4375 C 14.710938 11.957031 14.789062 12.773438 14.558594 13.382812 C 14.304688 14.050781 13.679688 14.503906 12.789062 14.652344 C 12.507812 14.699219 11.867188 14.691406 11.566406 14.640625 C 10.929688 14.519531 10.316406 14.199219 9.941406 13.789062 C 9.792969 13.628906 9.507812 13.199219 9.523438 13.171875 L 9.675781 13.074219 L 10.277344 12.726562 L 10.726562 12.464844 L 10.832031 12.605469 C 10.964844 12.8125 11.261719 13.09375 11.433594 13.1875 C 11.953125 13.457031 12.648438 13.421875 12.992188 13.109375 C 13.140625 12.972656 13.203125 12.828125 13.203125 12.628906 C 13.203125 12.445312 13.175781 12.359375 13.085938 12.21875 C 12.957031 12.042969 12.699219 11.898438 11.980469 11.578125 C 11.152344 11.226562 10.800781 11.003906 10.472656 10.660156 C 10.285156 10.453125 10.113281 10.128906 10.03125 9.859375 C 9.972656 9.628906 9.953125 9.058594 10.007812 8.832031 C 10.179688 8.03125 10.785156 7.472656 11.648438 7.3125 C 11.929688 7.257812 12.589844 7.28125 12.863281 7.351562 Z M 12.855469 7.359375 "/>
</g>
</svg>
