<?xml version="1.0" encoding="UTF-8"?>
<svg xmlns="http://www.w3.org/2000/svg" xmlns:xlink="http://www.w3.org/1999/xlink" width="16px" height="16px" viewBox="0 0 16 16" version="1.1">
<g id="surface1">
<path style="fill:none;stroke-width:24;stroke-linecap:butt;stroke-linejoin:miter;stroke:rgb(91.372549%,11.764706%,38.823529%);stroke-opacity:1;stroke-miterlimit:10;" d="M 371.923828 227.636719 C 419.677734 275.244141 457.03125 326.367188 478.857422 371.191406 C 505.224609 425.244141 509.033203 470.947266 489.990234 489.84375 C 470.214844 509.765625 421.728516 505.810547 364.306641 476.953125 C 320.800781 455.126953 272.314453 417.773438 227.050781 372.65625 C 180.615234 326.220703 142.089844 277.001953 120.410156 232.763672 C 92.871094 176.806641 90.234375 129.052734 109.716797 109.570312 C 128.613281 90.820312 172.998047 93.603516 226.464844 119.384766 C 271.582031 141.210938 323.876953 179.589844 371.923828 227.636719 Z M 371.923828 227.636719 " transform="matrix(0.0266667,0,0,0.0266667,0,0)"/>
<path style="fill:none;stroke-width:24;stroke-linecap:butt;stroke-linejoin:miter;stroke:rgb(91.372549%,11.764706%,38.823529%);stroke-opacity:1;stroke-miterlimit:10;" d="M 272.900391 201.123047 C 337.939453 183.691406 400.927734 176.806641 450.732422 180.175781 C 510.644531 184.423828 552.099609 203.90625 559.130859 229.980469 C 566.308594 256.933594 538.769531 296.923828 485.009766 332.373047 C 444.433594 359.033203 387.890625 382.470703 326.074219 399.169922 C 262.792969 416.162109 200.830078 424.951172 151.611328 421.728516 C 89.355469 417.480469 46.728516 395.947266 39.697266 369.433594 C 32.8125 343.652344 57.421875 306.591797 106.494141 273.193359 C 147.949219 244.921875 207.275391 218.701172 272.900391 201.123047 Z M 272.900391 201.123047 " transform="matrix(0.0266667,0,0,0.0266667,0,0)"/>
<path style="fill:none;stroke-width:24;stroke-linecap:butt;stroke-linejoin:miter;stroke:rgb(91.372549%,11.764706%,38.823529%);stroke-opacity:1;stroke-miterlimit:10;" d="M 200.537109 273.779297 C 217.822266 208.59375 243.310547 150.585938 271.142578 109.277344 C 304.6875 59.326172 342.333984 33.251953 368.261719 40.136719 C 395.361328 47.314453 416.308594 91.259766 420.117188 155.419922 C 422.900391 204.052734 414.990234 264.697266 398.583984 326.513672 C 381.591797 389.941406 358.447266 447.949219 331.054688 488.964844 C 296.337891 540.820312 256.201172 566.894531 229.6875 559.863281 C 204.052734 552.978516 184.130859 513.134766 179.736328 453.955078 C 175.927734 403.857422 182.958984 339.404297 200.537109 273.779297 Z M 200.537109 273.779297 " transform="matrix(0.0266667,0,0,0.0266667,0,0)"/>
<path style=" stroke:none;fill-rule:nonzero;fill:rgb(91.372549%,11.764706%,38.823529%);fill-opacity:1;" d="M 8 9.316406 C 7.972656 9.316406 7.949219 9.308594 7.929688 9.289062 L 6.953125 8.34375 C 6.941406 8.335938 6.929688 8.324219 6.910156 8.304688 C 6.890625 8.285156 6.863281 8.25 6.824219 8.203125 C 6.78125 8.152344 6.746094 8.101562 6.714844 8.046875 C 6.683594 7.996094 6.65625 7.933594 6.632812 7.859375 C 6.609375 7.785156 6.59375 7.710938 6.59375 7.640625 C 6.59375 7.414062 6.660156 7.234375 6.792969 7.101562 C 6.925781 6.972656 7.109375 6.910156 7.34375 6.910156 C 7.410156 6.910156 7.476562 6.921875 7.542969 6.941406 C 7.609375 6.964844 7.671875 6.996094 7.730469 7.035156 C 7.789062 7.070312 7.839844 7.109375 7.878906 7.140625 C 7.921875 7.175781 7.960938 7.210938 8 7.246094 C 8.039062 7.210938 8.078125 7.175781 8.117188 7.140625 C 8.160156 7.109375 8.210938 7.070312 8.269531 7.035156 C 8.328125 6.996094 8.390625 6.964844 8.457031 6.941406 C 8.523438 6.921875 8.589844 6.910156 8.65625 6.910156 C 8.890625 6.910156 9.074219 6.972656 9.207031 7.101562 C 9.339844 7.234375 9.40625 7.414062 9.40625 7.640625 C 9.40625 7.875 9.285156 8.109375 9.046875 8.347656 L 8.070312 9.289062 C 8.050781 9.308594 8.027344 9.316406 8 9.316406 Z M 8 9.316406 "/>
</g>
</svg>
